<mxfile host="app.diagrams.net" agent="Mozilla/5.0 (Windows NT 10.0; Win64; x64) AppleWebKit/537.36 (KHTML, like Gecko) Chrome/132.0.0.0 Safari/537.36" version="26.0.6">
  <diagram name="Page-1" id="NSwqVcK2oXpAER3ZjAsL">
    <mxGraphModel dx="6143" dy="3287" grid="1" gridSize="10" guides="1" tooltips="1" connect="1" arrows="1" fold="1" page="1" pageScale="1" pageWidth="850" pageHeight="1100" math="0" shadow="0">
      <root>
        <mxCell id="0" />
        <mxCell id="1" parent="0" />
        <mxCell id="9Tvwa19tDu2NL2UT3ghP-4" value="" style="ellipse;whiteSpace=wrap;html=1;aspect=fixed;fillColor=#60a917;fontColor=#ffffff;strokeColor=#2D7600;" vertex="1" parent="1">
          <mxGeometry x="270" y="840" width="80" height="80" as="geometry" />
        </mxCell>
        <mxCell id="9Tvwa19tDu2NL2UT3ghP-5" value="" style="ellipse;whiteSpace=wrap;html=1;aspect=fixed;fillColor=#60a917;fontColor=#ffffff;strokeColor=#2D7600;" vertex="1" parent="1">
          <mxGeometry x="40" y="1020" width="80" height="80" as="geometry" />
        </mxCell>
        <mxCell id="9Tvwa19tDu2NL2UT3ghP-6" value="" style="ellipse;whiteSpace=wrap;html=1;aspect=fixed;fillColor=#0050ef;fontColor=#ffffff;strokeColor=none;" vertex="1" parent="1">
          <mxGeometry x="480" y="1020" width="80" height="80" as="geometry" />
        </mxCell>
        <mxCell id="9Tvwa19tDu2NL2UT3ghP-7" value="" style="ellipse;whiteSpace=wrap;html=1;aspect=fixed;fillColor=#0050ef;fontColor=#ffffff;strokeColor=none;" vertex="1" parent="1">
          <mxGeometry x="-130" y="1220" width="80" height="80" as="geometry" />
        </mxCell>
        <mxCell id="9Tvwa19tDu2NL2UT3ghP-8" value="" style="ellipse;whiteSpace=wrap;html=1;aspect=fixed;fillColor=#60a917;fontColor=#ffffff;strokeColor=#2D7600;" vertex="1" parent="1">
          <mxGeometry x="220" y="1220" width="80" height="80" as="geometry" />
        </mxCell>
        <mxCell id="9Tvwa19tDu2NL2UT3ghP-9" value="" style="ellipse;whiteSpace=wrap;html=1;aspect=fixed;fillColor=#0050ef;fontColor=#ffffff;strokeColor=none;" vertex="1" parent="1">
          <mxGeometry x="340" y="1220" width="80" height="80" as="geometry" />
        </mxCell>
        <mxCell id="9Tvwa19tDu2NL2UT3ghP-10" value="" style="ellipse;whiteSpace=wrap;html=1;aspect=fixed;fillColor=#0050ef;fontColor=#ffffff;strokeColor=none;" vertex="1" parent="1">
          <mxGeometry x="660" y="1210" width="80" height="80" as="geometry" />
        </mxCell>
        <mxCell id="9Tvwa19tDu2NL2UT3ghP-12" value="" style="endArrow=classic;html=1;rounded=0;exitX=0;exitY=1;exitDx=0;exitDy=0;entryX=1;entryY=0;entryDx=0;entryDy=0;strokeWidth=4;endSize=14;" edge="1" parent="1" source="9Tvwa19tDu2NL2UT3ghP-4" target="9Tvwa19tDu2NL2UT3ghP-5">
          <mxGeometry width="50" height="50" relative="1" as="geometry">
            <mxPoint x="20" y="920" as="sourcePoint" />
            <mxPoint x="70" y="870" as="targetPoint" />
          </mxGeometry>
        </mxCell>
        <mxCell id="9Tvwa19tDu2NL2UT3ghP-13" value="" style="endArrow=classic;html=1;rounded=0;exitX=0;exitY=1;exitDx=0;exitDy=0;entryX=1;entryY=0;entryDx=0;entryDy=0;strokeWidth=4;endSize=14;" edge="1" parent="1" source="9Tvwa19tDu2NL2UT3ghP-5" target="9Tvwa19tDu2NL2UT3ghP-7">
          <mxGeometry width="50" height="50" relative="1" as="geometry">
            <mxPoint x="24" y="1086" as="sourcePoint" />
            <mxPoint x="-130" y="1210" as="targetPoint" />
          </mxGeometry>
        </mxCell>
        <mxCell id="9Tvwa19tDu2NL2UT3ghP-14" value="" style="endArrow=classic;html=1;rounded=0;exitX=1;exitY=1;exitDx=0;exitDy=0;entryX=0;entryY=0;entryDx=0;entryDy=0;strokeWidth=4;endSize=14;" edge="1" parent="1" source="9Tvwa19tDu2NL2UT3ghP-5" target="9Tvwa19tDu2NL2UT3ghP-8">
          <mxGeometry width="50" height="50" relative="1" as="geometry">
            <mxPoint x="62" y="1098" as="sourcePoint" />
            <mxPoint x="-52" y="1242" as="targetPoint" />
          </mxGeometry>
        </mxCell>
        <mxCell id="9Tvwa19tDu2NL2UT3ghP-15" value="" style="endArrow=classic;html=1;rounded=0;exitX=1;exitY=1;exitDx=0;exitDy=0;entryX=0;entryY=0;entryDx=0;entryDy=0;strokeWidth=4;endSize=14;" edge="1" parent="1" source="9Tvwa19tDu2NL2UT3ghP-4" target="9Tvwa19tDu2NL2UT3ghP-6">
          <mxGeometry width="50" height="50" relative="1" as="geometry">
            <mxPoint x="350" y="870" as="sourcePoint" />
            <mxPoint x="474" y="1014" as="targetPoint" />
          </mxGeometry>
        </mxCell>
        <mxCell id="9Tvwa19tDu2NL2UT3ghP-16" value="" style="endArrow=classic;html=1;rounded=0;strokeWidth=4;endSize=14;" edge="1" parent="1" source="9Tvwa19tDu2NL2UT3ghP-6" target="9Tvwa19tDu2NL2UT3ghP-10">
          <mxGeometry width="50" height="50" relative="1" as="geometry">
            <mxPoint x="550" y="1090" as="sourcePoint" />
            <mxPoint x="674" y="1234" as="targetPoint" />
          </mxGeometry>
        </mxCell>
        <mxCell id="9Tvwa19tDu2NL2UT3ghP-17" value="" style="endArrow=classic;html=1;rounded=0;exitX=0;exitY=1;exitDx=0;exitDy=0;entryX=1;entryY=0;entryDx=0;entryDy=0;strokeWidth=4;endSize=14;" edge="1" parent="1" source="9Tvwa19tDu2NL2UT3ghP-6" target="9Tvwa19tDu2NL2UT3ghP-9">
          <mxGeometry width="50" height="50" relative="1" as="geometry">
            <mxPoint x="410" y="1110" as="sourcePoint" />
            <mxPoint x="534" y="1254" as="targetPoint" />
          </mxGeometry>
        </mxCell>
        <mxCell id="9Tvwa19tDu2NL2UT3ghP-18" value="" style="ellipse;whiteSpace=wrap;html=1;aspect=fixed;fillColor=#60a917;fontColor=#ffffff;strokeColor=#2D7600;" vertex="1" parent="1">
          <mxGeometry x="1220" y="830" width="80" height="80" as="geometry" />
        </mxCell>
        <mxCell id="9Tvwa19tDu2NL2UT3ghP-19" value="" style="ellipse;whiteSpace=wrap;html=1;aspect=fixed;fillColor=#0050ef;fontColor=#ffffff;strokeColor=none;" vertex="1" parent="1">
          <mxGeometry x="990" y="1010" width="80" height="80" as="geometry" />
        </mxCell>
        <mxCell id="9Tvwa19tDu2NL2UT3ghP-20" value="" style="ellipse;whiteSpace=wrap;html=1;aspect=fixed;fillColor=#60a917;fontColor=#ffffff;strokeColor=#2D7600;" vertex="1" parent="1">
          <mxGeometry x="1430" y="1010" width="80" height="80" as="geometry" />
        </mxCell>
        <mxCell id="9Tvwa19tDu2NL2UT3ghP-21" value="" style="ellipse;whiteSpace=wrap;html=1;aspect=fixed;fillColor=#0050ef;fontColor=#ffffff;strokeColor=none;" vertex="1" parent="1">
          <mxGeometry x="820" y="1210" width="80" height="80" as="geometry" />
        </mxCell>
        <mxCell id="9Tvwa19tDu2NL2UT3ghP-22" value="" style="ellipse;whiteSpace=wrap;html=1;aspect=fixed;fillColor=#0050ef;fontColor=#ffffff;strokeColor=none;" vertex="1" parent="1">
          <mxGeometry x="1170" y="1210" width="80" height="80" as="geometry" />
        </mxCell>
        <mxCell id="9Tvwa19tDu2NL2UT3ghP-23" value="" style="ellipse;whiteSpace=wrap;html=1;aspect=fixed;fillColor=#0050ef;fontColor=#ffffff;strokeColor=none;" vertex="1" parent="1">
          <mxGeometry x="1290" y="1210" width="80" height="80" as="geometry" />
        </mxCell>
        <mxCell id="9Tvwa19tDu2NL2UT3ghP-24" value="" style="ellipse;whiteSpace=wrap;html=1;aspect=fixed;fillColor=#60a917;fontColor=#ffffff;strokeColor=#2D7600;" vertex="1" parent="1">
          <mxGeometry x="1610" y="1200" width="80" height="80" as="geometry" />
        </mxCell>
        <mxCell id="9Tvwa19tDu2NL2UT3ghP-25" value="" style="endArrow=classic;html=1;rounded=0;exitX=0;exitY=1;exitDx=0;exitDy=0;entryX=1;entryY=0;entryDx=0;entryDy=0;strokeWidth=4;endSize=14;" edge="1" source="9Tvwa19tDu2NL2UT3ghP-18" target="9Tvwa19tDu2NL2UT3ghP-19" parent="1">
          <mxGeometry width="50" height="50" relative="1" as="geometry">
            <mxPoint x="970" y="910" as="sourcePoint" />
            <mxPoint x="1020" y="860" as="targetPoint" />
          </mxGeometry>
        </mxCell>
        <mxCell id="9Tvwa19tDu2NL2UT3ghP-26" value="" style="endArrow=classic;html=1;rounded=0;exitX=0;exitY=1;exitDx=0;exitDy=0;entryX=1;entryY=0;entryDx=0;entryDy=0;strokeWidth=4;endSize=14;" edge="1" source="9Tvwa19tDu2NL2UT3ghP-19" target="9Tvwa19tDu2NL2UT3ghP-21" parent="1">
          <mxGeometry width="50" height="50" relative="1" as="geometry">
            <mxPoint x="974" y="1076" as="sourcePoint" />
            <mxPoint x="820" y="1200" as="targetPoint" />
          </mxGeometry>
        </mxCell>
        <mxCell id="9Tvwa19tDu2NL2UT3ghP-27" value="" style="endArrow=classic;html=1;rounded=0;exitX=1;exitY=1;exitDx=0;exitDy=0;entryX=0;entryY=0;entryDx=0;entryDy=0;strokeWidth=4;endSize=14;" edge="1" source="9Tvwa19tDu2NL2UT3ghP-19" target="9Tvwa19tDu2NL2UT3ghP-22" parent="1">
          <mxGeometry width="50" height="50" relative="1" as="geometry">
            <mxPoint x="1012" y="1088" as="sourcePoint" />
            <mxPoint x="898" y="1232" as="targetPoint" />
          </mxGeometry>
        </mxCell>
        <mxCell id="9Tvwa19tDu2NL2UT3ghP-28" value="" style="endArrow=classic;html=1;rounded=0;exitX=1;exitY=1;exitDx=0;exitDy=0;entryX=0;entryY=0;entryDx=0;entryDy=0;strokeWidth=4;endSize=14;" edge="1" source="9Tvwa19tDu2NL2UT3ghP-18" target="9Tvwa19tDu2NL2UT3ghP-20" parent="1">
          <mxGeometry width="50" height="50" relative="1" as="geometry">
            <mxPoint x="1300" y="860" as="sourcePoint" />
            <mxPoint x="1424" y="1004" as="targetPoint" />
          </mxGeometry>
        </mxCell>
        <mxCell id="9Tvwa19tDu2NL2UT3ghP-29" value="" style="endArrow=classic;html=1;rounded=0;strokeWidth=4;endSize=14;" edge="1" source="9Tvwa19tDu2NL2UT3ghP-20" target="9Tvwa19tDu2NL2UT3ghP-24" parent="1">
          <mxGeometry width="50" height="50" relative="1" as="geometry">
            <mxPoint x="1500" y="1080" as="sourcePoint" />
            <mxPoint x="1624" y="1224" as="targetPoint" />
          </mxGeometry>
        </mxCell>
        <mxCell id="9Tvwa19tDu2NL2UT3ghP-30" value="" style="endArrow=classic;html=1;rounded=0;exitX=0;exitY=1;exitDx=0;exitDy=0;entryX=1;entryY=0;entryDx=0;entryDy=0;strokeWidth=4;endSize=14;" edge="1" source="9Tvwa19tDu2NL2UT3ghP-20" target="9Tvwa19tDu2NL2UT3ghP-23" parent="1">
          <mxGeometry width="50" height="50" relative="1" as="geometry">
            <mxPoint x="1360" y="1100" as="sourcePoint" />
            <mxPoint x="1484" y="1244" as="targetPoint" />
          </mxGeometry>
        </mxCell>
        <mxCell id="9Tvwa19tDu2NL2UT3ghP-31" value="" style="ellipse;whiteSpace=wrap;html=1;aspect=fixed;fillColor=#60a917;fontColor=#ffffff;strokeColor=#2D7600;" vertex="1" parent="1">
          <mxGeometry x="2190" y="820" width="80" height="80" as="geometry" />
        </mxCell>
        <mxCell id="9Tvwa19tDu2NL2UT3ghP-32" value="" style="ellipse;whiteSpace=wrap;html=1;aspect=fixed;fillColor=#0050ef;fontColor=#ffffff;strokeColor=none;" vertex="1" parent="1">
          <mxGeometry x="1960" y="1000" width="80" height="80" as="geometry" />
        </mxCell>
        <mxCell id="9Tvwa19tDu2NL2UT3ghP-33" value="" style="ellipse;whiteSpace=wrap;html=1;aspect=fixed;fillColor=#60a917;fontColor=#ffffff;strokeColor=#2D7600;" vertex="1" parent="1">
          <mxGeometry x="2400" y="1000" width="80" height="80" as="geometry" />
        </mxCell>
        <mxCell id="9Tvwa19tDu2NL2UT3ghP-34" value="" style="ellipse;whiteSpace=wrap;html=1;aspect=fixed;fillColor=#0050ef;fontColor=#ffffff;strokeColor=none;" vertex="1" parent="1">
          <mxGeometry x="1790" y="1200" width="80" height="80" as="geometry" />
        </mxCell>
        <mxCell id="9Tvwa19tDu2NL2UT3ghP-35" value="" style="ellipse;whiteSpace=wrap;html=1;aspect=fixed;fillColor=#0050ef;fontColor=#ffffff;strokeColor=none;" vertex="1" parent="1">
          <mxGeometry x="2140" y="1200" width="80" height="80" as="geometry" />
        </mxCell>
        <mxCell id="9Tvwa19tDu2NL2UT3ghP-36" value="" style="ellipse;whiteSpace=wrap;html=1;aspect=fixed;fillColor=#60a917;fontColor=#ffffff;strokeColor=#2D7600;" vertex="1" parent="1">
          <mxGeometry x="2260" y="1200" width="80" height="80" as="geometry" />
        </mxCell>
        <mxCell id="9Tvwa19tDu2NL2UT3ghP-37" value="" style="ellipse;whiteSpace=wrap;html=1;aspect=fixed;fillColor=#0050ef;fontColor=#ffffff;strokeColor=none;" vertex="1" parent="1">
          <mxGeometry x="2580" y="1190" width="80" height="80" as="geometry" />
        </mxCell>
        <mxCell id="9Tvwa19tDu2NL2UT3ghP-38" value="" style="endArrow=classic;html=1;rounded=0;exitX=0;exitY=1;exitDx=0;exitDy=0;entryX=1;entryY=0;entryDx=0;entryDy=0;strokeWidth=4;endSize=14;" edge="1" source="9Tvwa19tDu2NL2UT3ghP-31" target="9Tvwa19tDu2NL2UT3ghP-32" parent="1">
          <mxGeometry width="50" height="50" relative="1" as="geometry">
            <mxPoint x="1940" y="900" as="sourcePoint" />
            <mxPoint x="1990" y="850" as="targetPoint" />
          </mxGeometry>
        </mxCell>
        <mxCell id="9Tvwa19tDu2NL2UT3ghP-39" value="" style="endArrow=classic;html=1;rounded=0;exitX=0;exitY=1;exitDx=0;exitDy=0;entryX=1;entryY=0;entryDx=0;entryDy=0;strokeWidth=4;endSize=14;" edge="1" source="9Tvwa19tDu2NL2UT3ghP-32" target="9Tvwa19tDu2NL2UT3ghP-34" parent="1">
          <mxGeometry width="50" height="50" relative="1" as="geometry">
            <mxPoint x="1944" y="1066" as="sourcePoint" />
            <mxPoint x="1790" y="1190" as="targetPoint" />
          </mxGeometry>
        </mxCell>
        <mxCell id="9Tvwa19tDu2NL2UT3ghP-40" value="" style="endArrow=classic;html=1;rounded=0;exitX=1;exitY=1;exitDx=0;exitDy=0;entryX=0;entryY=0;entryDx=0;entryDy=0;strokeWidth=4;endSize=14;" edge="1" source="9Tvwa19tDu2NL2UT3ghP-32" target="9Tvwa19tDu2NL2UT3ghP-35" parent="1">
          <mxGeometry width="50" height="50" relative="1" as="geometry">
            <mxPoint x="1982" y="1078" as="sourcePoint" />
            <mxPoint x="1868" y="1222" as="targetPoint" />
          </mxGeometry>
        </mxCell>
        <mxCell id="9Tvwa19tDu2NL2UT3ghP-41" value="" style="endArrow=classic;html=1;rounded=0;exitX=1;exitY=1;exitDx=0;exitDy=0;entryX=0;entryY=0;entryDx=0;entryDy=0;strokeWidth=4;endSize=14;" edge="1" source="9Tvwa19tDu2NL2UT3ghP-31" target="9Tvwa19tDu2NL2UT3ghP-33" parent="1">
          <mxGeometry width="50" height="50" relative="1" as="geometry">
            <mxPoint x="2270" y="850" as="sourcePoint" />
            <mxPoint x="2394" y="994" as="targetPoint" />
          </mxGeometry>
        </mxCell>
        <mxCell id="9Tvwa19tDu2NL2UT3ghP-42" value="" style="endArrow=classic;html=1;rounded=0;strokeWidth=4;endSize=14;" edge="1" source="9Tvwa19tDu2NL2UT3ghP-33" target="9Tvwa19tDu2NL2UT3ghP-37" parent="1">
          <mxGeometry width="50" height="50" relative="1" as="geometry">
            <mxPoint x="2470" y="1070" as="sourcePoint" />
            <mxPoint x="2594" y="1214" as="targetPoint" />
          </mxGeometry>
        </mxCell>
        <mxCell id="9Tvwa19tDu2NL2UT3ghP-43" value="" style="endArrow=classic;html=1;rounded=0;exitX=0;exitY=1;exitDx=0;exitDy=0;entryX=1;entryY=0;entryDx=0;entryDy=0;strokeWidth=4;endSize=14;" edge="1" source="9Tvwa19tDu2NL2UT3ghP-33" target="9Tvwa19tDu2NL2UT3ghP-36" parent="1">
          <mxGeometry width="50" height="50" relative="1" as="geometry">
            <mxPoint x="2330" y="1090" as="sourcePoint" />
            <mxPoint x="2454" y="1234" as="targetPoint" />
          </mxGeometry>
        </mxCell>
        <mxCell id="9Tvwa19tDu2NL2UT3ghP-44" value="..." style="text;html=1;align=center;verticalAlign=middle;whiteSpace=wrap;rounded=0;fontSize=99;" vertex="1" parent="1">
          <mxGeometry x="1720" y="930" width="60" height="160" as="geometry" />
        </mxCell>
        <mxCell id="9Tvwa19tDu2NL2UT3ghP-45" value="" style="rounded=0;whiteSpace=wrap;html=1;" vertex="1" parent="1">
          <mxGeometry x="1045" y="370" width="430" height="170" as="geometry" />
        </mxCell>
        <mxCell id="9Tvwa19tDu2NL2UT3ghP-46" value="" style="endArrow=classic;html=1;rounded=0;exitX=0.75;exitY=1;exitDx=0;exitDy=0;entryX=0;entryY=0;entryDx=0;entryDy=0;strokeWidth=4;endSize=14;" edge="1" parent="1" source="9Tvwa19tDu2NL2UT3ghP-45" target="9Tvwa19tDu2NL2UT3ghP-31">
          <mxGeometry width="50" height="50" relative="1" as="geometry">
            <mxPoint x="790" y="740" as="sourcePoint" />
            <mxPoint x="840" y="690" as="targetPoint" />
          </mxGeometry>
        </mxCell>
        <mxCell id="9Tvwa19tDu2NL2UT3ghP-47" value="" style="endArrow=classic;html=1;rounded=0;exitX=0.5;exitY=1;exitDx=0;exitDy=0;entryX=0.5;entryY=0;entryDx=0;entryDy=0;strokeWidth=4;endSize=14;" edge="1" parent="1" source="9Tvwa19tDu2NL2UT3ghP-45" target="9Tvwa19tDu2NL2UT3ghP-18">
          <mxGeometry width="50" height="50" relative="1" as="geometry">
            <mxPoint x="800" y="750" as="sourcePoint" />
            <mxPoint x="850" y="700" as="targetPoint" />
          </mxGeometry>
        </mxCell>
        <mxCell id="9Tvwa19tDu2NL2UT3ghP-48" value="" style="endArrow=classic;html=1;rounded=0;entryX=1;entryY=0;entryDx=0;entryDy=0;strokeWidth=4;endSize=14;" edge="1" parent="1" source="9Tvwa19tDu2NL2UT3ghP-45" target="9Tvwa19tDu2NL2UT3ghP-4">
          <mxGeometry width="50" height="50" relative="1" as="geometry">
            <mxPoint x="810" y="760" as="sourcePoint" />
            <mxPoint x="860" y="710" as="targetPoint" />
          </mxGeometry>
        </mxCell>
        <mxCell id="9Tvwa19tDu2NL2UT3ghP-49" value="Dataset" style="text;html=1;align=center;verticalAlign=middle;whiteSpace=wrap;rounded=0;fontSize=46;" vertex="1" parent="1">
          <mxGeometry x="1120" y="400" width="280" height="110" as="geometry" />
        </mxCell>
        <mxCell id="9Tvwa19tDu2NL2UT3ghP-60" style="edgeStyle=orthogonalEdgeStyle;rounded=0;orthogonalLoop=1;jettySize=auto;html=1;exitX=0.5;exitY=1;exitDx=0;exitDy=0;entryX=0;entryY=0.5;entryDx=0;entryDy=0;strokeWidth=4;endSize=14;" edge="1" parent="1" source="9Tvwa19tDu2NL2UT3ghP-50" target="9Tvwa19tDu2NL2UT3ghP-56">
          <mxGeometry relative="1" as="geometry" />
        </mxCell>
        <mxCell id="9Tvwa19tDu2NL2UT3ghP-50" value="" style="rounded=0;whiteSpace=wrap;html=1;fillColor=#ffe6cc;strokeColor=#d79b00;" vertex="1" parent="1">
          <mxGeometry x="75" y="1320" width="430" height="170" as="geometry" />
        </mxCell>
        <mxCell id="9Tvwa19tDu2NL2UT3ghP-51" value="Prediction 1" style="text;html=1;align=center;verticalAlign=middle;whiteSpace=wrap;rounded=0;fontSize=46;" vertex="1" parent="1">
          <mxGeometry x="150" y="1350" width="280" height="110" as="geometry" />
        </mxCell>
        <mxCell id="9Tvwa19tDu2NL2UT3ghP-64" style="edgeStyle=orthogonalEdgeStyle;rounded=0;orthogonalLoop=1;jettySize=auto;html=1;exitX=0.5;exitY=1;exitDx=0;exitDy=0;entryX=0.5;entryY=0;entryDx=0;entryDy=0;strokeWidth=4;endSize=14;" edge="1" parent="1" source="9Tvwa19tDu2NL2UT3ghP-52" target="9Tvwa19tDu2NL2UT3ghP-56">
          <mxGeometry relative="1" as="geometry" />
        </mxCell>
        <mxCell id="9Tvwa19tDu2NL2UT3ghP-52" value="" style="rounded=0;whiteSpace=wrap;html=1;fillColor=#ffe6cc;strokeColor=#d79b00;" vertex="1" parent="1">
          <mxGeometry x="1045" y="1330" width="430" height="170" as="geometry" />
        </mxCell>
        <mxCell id="9Tvwa19tDu2NL2UT3ghP-53" value="Prediction 2" style="text;html=1;align=center;verticalAlign=middle;whiteSpace=wrap;rounded=0;fontSize=46;" vertex="1" parent="1">
          <mxGeometry x="1120" y="1360" width="280" height="110" as="geometry" />
        </mxCell>
        <mxCell id="9Tvwa19tDu2NL2UT3ghP-62" style="edgeStyle=orthogonalEdgeStyle;rounded=0;orthogonalLoop=1;jettySize=auto;html=1;exitX=0.5;exitY=1;exitDx=0;exitDy=0;entryX=1;entryY=0.5;entryDx=0;entryDy=0;strokeWidth=4;endSize=14;" edge="1" parent="1" source="9Tvwa19tDu2NL2UT3ghP-54" target="9Tvwa19tDu2NL2UT3ghP-56">
          <mxGeometry relative="1" as="geometry" />
        </mxCell>
        <mxCell id="9Tvwa19tDu2NL2UT3ghP-54" value="" style="rounded=0;whiteSpace=wrap;html=1;fillColor=#ffe6cc;strokeColor=#d79b00;" vertex="1" parent="1">
          <mxGeometry x="2015" y="1330" width="430" height="170" as="geometry" />
        </mxCell>
        <mxCell id="9Tvwa19tDu2NL2UT3ghP-55" value="Prediction n" style="text;html=1;align=center;verticalAlign=middle;whiteSpace=wrap;rounded=0;fontSize=46;" vertex="1" parent="1">
          <mxGeometry x="2090" y="1360" width="280" height="110" as="geometry" />
        </mxCell>
        <mxCell id="9Tvwa19tDu2NL2UT3ghP-63" style="edgeStyle=orthogonalEdgeStyle;rounded=0;orthogonalLoop=1;jettySize=auto;html=1;exitX=0.5;exitY=1;exitDx=0;exitDy=0;entryX=0.5;entryY=0;entryDx=0;entryDy=0;strokeWidth=4;endSize=14;" edge="1" parent="1" source="9Tvwa19tDu2NL2UT3ghP-56" target="9Tvwa19tDu2NL2UT3ghP-58">
          <mxGeometry relative="1" as="geometry" />
        </mxCell>
        <mxCell id="9Tvwa19tDu2NL2UT3ghP-56" value="" style="rounded=0;whiteSpace=wrap;html=1;fillColor=#dae8fc;strokeColor=#6c8ebf;" vertex="1" parent="1">
          <mxGeometry x="1045" y="1630" width="430" height="170" as="geometry" />
        </mxCell>
        <mxCell id="9Tvwa19tDu2NL2UT3ghP-57" value="Averaging" style="text;html=1;align=center;verticalAlign=middle;whiteSpace=wrap;rounded=0;fontSize=46;" vertex="1" parent="1">
          <mxGeometry x="1120" y="1660" width="280" height="110" as="geometry" />
        </mxCell>
        <mxCell id="9Tvwa19tDu2NL2UT3ghP-58" value="" style="rounded=0;whiteSpace=wrap;html=1;fillColor=#d5e8d4;strokeColor=#82b366;" vertex="1" parent="1">
          <mxGeometry x="1045" y="1910" width="430" height="170" as="geometry" />
        </mxCell>
        <mxCell id="9Tvwa19tDu2NL2UT3ghP-59" value="Result" style="text;html=1;align=center;verticalAlign=middle;whiteSpace=wrap;rounded=0;fontSize=46;" vertex="1" parent="1">
          <mxGeometry x="1120" y="1940" width="280" height="110" as="geometry" />
        </mxCell>
        <mxCell id="9Tvwa19tDu2NL2UT3ghP-65" value="Random Forest" style="text;html=1;align=center;verticalAlign=middle;whiteSpace=wrap;rounded=0;fontSize=91;fontStyle=1" vertex="1" parent="1">
          <mxGeometry x="840" y="160" width="840" height="170" as="geometry" />
        </mxCell>
      </root>
    </mxGraphModel>
  </diagram>
</mxfile>
